<svg xmlns="http://www.w3.org/2000/svg" width="2554" height="1253.034" viewBox="0 0 2554 1253.034">
  <g id="Group_56" data-name="Group 56" transform="translate(-275 204.144)">
    <path id="Path_3" data-name="Path 3" d="M568.982,1138.054C49.214,752.7,332.512,512.768,554.4,468.086S715.645,145.708,875.421-1.362C979.294-96.973,1295.648-179.608,1661.526,36s818.215,203.76,989.079,316.369c217.176,143.13,226.618,476.994,79.428,634.156-161.266,172.192-225.786,166.5-225.786,166.5Z" transform="translate(0 -104.151)" fill="#c5e6f9"/>
    <g id="Group_14" data-name="Group 14">
      <rect id="Rectangle_21" data-name="Rectangle 21" width="333.744" height="540.873" transform="translate(529.952 163.544)" fill="#fff"/>
      <g id="Group_6" data-name="Group 6">
        <path id="Path_4" data-name="Path 4" d="M865.892,706.9H527.756V161.058H865.892Zm-333.745-4.971H861.5V166.03H532.147Z" fill="#63acc2"/>
      </g>
      <rect id="Rectangle_22" data-name="Rectangle 22" width="213.324" height="9.645" rx="3.985" transform="translate(620.682 298.48)" fill="#9ec8ff" opacity="0.7"/>
      <rect id="Rectangle_23" data-name="Rectangle 23" width="213.324" height="9.645" rx="3.985" transform="translate(620.682 315.764)" fill="#9ec8ff" opacity="0.7"/>
      <rect id="Rectangle_24" data-name="Rectangle 24" width="213.324" height="9.645" rx="3.985" transform="translate(620.682 365.742)" fill="#9ec8ff" opacity="0.7"/>
      <rect id="Rectangle_25" data-name="Rectangle 25" width="213.324" height="9.645" rx="3.985" transform="translate(620.682 383.026)" fill="#9ec8ff" opacity="0.7"/>
      <rect id="Rectangle_26" data-name="Rectangle 26" width="213.324" height="9.645" rx="3.985" transform="translate(620.682 444.914)" fill="#9ec8ff" opacity="0.7"/>
      <rect id="Rectangle_27" data-name="Rectangle 27" width="213.324" height="9.645" rx="3.985" transform="translate(620.682 462.198)" fill="#9ec8ff" opacity="0.7"/>
      <rect id="Rectangle_28" data-name="Rectangle 28" width="213.324" height="9.645" rx="3.985" transform="translate(620.682 506.737)" fill="#9ec8ff" opacity="0.7"/>
      <rect id="Rectangle_29" data-name="Rectangle 29" width="213.324" height="9.645" rx="3.985" transform="translate(620.682 524.02)" fill="#9ec8ff" opacity="0.7"/>
      <g id="Group_12" data-name="Group 12">
        <g id="Group_7" data-name="Group 7" opacity="0.8">
          <path id="Path_5" data-name="Path 5" d="M580.915,331.8H567.3c-5.917,0-10.732-5.45-10.732-12.149V304.238c0-6.7,4.815-12.15,10.732-12.15h13.615c5.917,0,10.731,5.451,10.731,12.15v15.413C591.646,326.35,586.832,331.8,580.915,331.8ZM567.3,299.048c-2.527,0-4.584,2.328-4.584,5.19v15.413c0,2.861,2.057,5.189,4.584,5.189h13.615c2.527,0,4.584-2.328,4.584-5.189V304.238c0-2.862-2.057-5.19-4.584-5.19Z" fill="#9ec8ff"/>
        </g>
        <g id="Group_8" data-name="Group 8" opacity="0.8">
          <path id="Path_6" data-name="Path 6" d="M580.915,397.3H567.3c-5.917,0-10.732-5.45-10.732-12.149V369.742c0-6.7,4.815-12.15,10.732-12.15h13.615c5.917,0,10.731,5.451,10.731,12.15v15.413C591.646,391.854,586.832,397.3,580.915,397.3ZM567.3,364.552c-2.527,0-4.584,2.328-4.584,5.19v15.413c0,2.861,2.057,5.189,4.584,5.189h13.615c2.527,0,4.584-2.328,4.584-5.189V369.742c0-2.862-2.057-5.19-4.584-5.19Z" fill="#9ec8ff"/>
        </g>
        <g id="Group_9" data-name="Group 9">
          <path id="Path_7" data-name="Path 7" d="M574.959,388.137c-.043,0-.085,0-.128,0a2.558,2.558,0,0,1-1.963-1.165l-9.786-14.449a3.253,3.253,0,0,1,.488-4.182,2.437,2.437,0,0,1,3.694.552l7.892,11.654,21.7-26.323a2.425,2.425,0,0,1,3.724-.146,3.268,3.268,0,0,1,.129,4.216l-23.825,28.9A2.5,2.5,0,0,1,574.959,388.137Z" fill="#f37168"/>
        </g>
        <g id="Group_10" data-name="Group 10">
          <path id="Path_8" data-name="Path 8" d="M580.915,474.471H567.3c-5.675,0-10.292-5.228-10.292-11.653V447.4c0-6.425,4.617-11.652,10.292-11.652h13.615c5.675,0,10.292,5.227,10.292,11.652v15.413C591.207,469.243,586.59,474.471,580.915,474.471ZM567.3,441.718c-2.769,0-5.023,2.552-5.023,5.687v15.413c0,3.136,2.254,5.687,5.023,5.687h13.615c2.769,0,5.023-2.551,5.023-5.687V447.4c0-3.135-2.254-5.687-5.023-5.687Z" fill="#9ec8ff"/>
        </g>
        <g id="Group_11" data-name="Group 11" opacity="0.8">
          <path id="Path_9" data-name="Path 9" d="M580.915,540.471H567.3c-5.917,0-10.732-5.45-10.732-12.149V512.909c0-6.7,4.815-12.149,10.732-12.149h13.615c5.917,0,10.731,5.45,10.731,12.149v15.413C591.646,535.021,586.832,540.471,580.915,540.471ZM567.3,507.72c-2.527,0-4.584,2.328-4.584,5.189v15.413c0,2.861,2.057,5.189,4.584,5.189h13.615c2.527,0,4.584-2.328,4.584-5.189V512.909c0-2.861-2.057-5.189-4.584-5.189Z" fill="#9ec8ff"/>
        </g>
      </g>
      <g id="Group_13" data-name="Group 13" opacity="0.7">
        <path id="Path_10" data-name="Path 10" d="M655.7,205.495l-16.341,42.738h-8.629l-16.287-42.738h9.438l11.488,30.527,11.648-30.527Z" fill="#63acc2"/>
        <path id="Path_11" data-name="Path 11" d="M668.78,246.1a20.025,20.025,0,0,1-7.389-7.906,25.363,25.363,0,0,1,0-22.651,20.558,20.558,0,0,1,28.557-7.907,20.311,20.311,0,0,1,7.388,7.907,25.137,25.137,0,0,1,0,22.651,20.3,20.3,0,0,1-7.388,7.906,20.951,20.951,0,0,1-21.168,0Zm16.637-7.3a11.891,11.891,0,0,0,4.234-4.854,17.084,17.084,0,0,0,0-14.164,11.891,11.891,0,0,0-4.234-4.854,11.353,11.353,0,0,0-12.08,0,11.881,11.881,0,0,0-4.233,4.854,17.084,17.084,0,0,0,0,14.164,11.881,11.881,0,0,0,4.233,4.854,11.353,11.353,0,0,0,12.08,0Z" fill="#63acc2"/>
        <path id="Path_12" data-name="Path 12" d="M716.589,213.555H704.508v-8.06h32.9v8.06h-12.08v34.678h-8.737Z" fill="#63acc2"/>
        <path id="Path_13" data-name="Path 13" d="M774.024,240.3v7.937h-29.23V205.495h28.529v7.937H753.477v9.281H771V230.4H753.477V240.3Z" fill="#63acc2"/>
      </g>
    </g>
    <path id="Path_14" data-name="Path 14" d="M1833.293,906.981H471.077a3.256,3.256,0,0,1,0-6.463H1833.293a3.256,3.256,0,0,1,0,6.463Z" fill="#232e4f"/>
    <g id="Group_15" data-name="Group 15">
      <path id="Path_15" data-name="Path 15" d="M1074.979,228.054c11.38,8.2,32.973,36.407,46.747,52.812s21.238,25.52,21.238,25.52l-169.94-4.641s9.222-7.538,17.565-21.376,11.134-26.367,34.251-44.244C1048.114,218.127,1063.871,220.048,1074.979,228.054Z" fill="#d8315b"/>
      <path id="Path_16" data-name="Path 16" d="M1044.6,234.633c8.343,0,13.612,36.29,17.565,44.244s24.755,9.446,24.755,9.446V273.328s3.787,11.266,6.422,18.387c7.465-5.381,17.345-11.843,27.012-12.6.881.55,17.568,20.057,17.568,20.057l-138.991,2.569s-8.343-4.971-7.026-4.971,11.609-19.885,20.076-28.585S1044.6,234.633,1044.6,234.633Z" fill="#b71644"/>
      <path id="Path_17" data-name="Path 17" d="M1090.708,294.537s27.226-13.174,40.839-10.937,17.125,10.937,17.125,10.937Z" fill="#facf50"/>
    </g>
    <path id="Path_18" data-name="Path 18" d="M1239.17,857.218V748.15H1016V857.218H943.437c-13.47,0-24.39,12.362-24.39,27.612v6.712c0,4.957,3.549,8.976,7.928,8.976h401.217c4.379,0,7.929-4.019,7.929-8.976V884.83c0-15.25-10.92-27.612-24.39-27.612Z" fill="#3e6bab"/>
    <g id="Group_16" data-name="Group 16">
      <path id="Path_19" data-name="Path 19" d="M1016,822.916l223.171-19.48V757.493L1016,760.17Z" fill="#1c447a"/>
      <path id="Path_20" data-name="Path 20" d="M1239.17,839.336,1016,857.218H1239.17Z" fill="#1c447a"/>
    </g>
    <g id="Group_17" data-name="Group 17">
      <path id="Rectangle_30" data-name="Rectangle 30" d="M27.209,0H670.268a27.209,27.209,0,0,1,27.209,27.209V454.147a27.209,27.209,0,0,1-27.209,27.209H27.21A27.21,27.21,0,0,1,0,454.147V27.209A27.209,27.209,0,0,1,27.209,0Z" transform="translate(778.845 291.715)" fill="#3e6bab"/>
      <rect id="Rectangle_31" data-name="Rectangle 31" width="658.278" height="413.018" rx="24.485" transform="translate(798.445 311.339)" fill="#fffaff"/>
    </g>
    <rect id="Rectangle_32" data-name="Rectangle 32" width="58.528" height="12.709" rx="5.251" transform="translate(1098.32 744.785)" fill="#1c447a"/>
    <path id="Path_21" data-name="Path 21" d="M1286.5,724.357H958.9V575.33l87.638-34.678h146.749L1286.5,575.33Z" fill="#d8315b"/>
    <path id="Path_22" data-name="Path 22" d="M1046.537,540.651,958.9,575.33h327.6l-93.212-34.678Z" fill="#d8315b"/>
    <path id="Path_23" data-name="Path 23" d="M1185.61,562.422H1057.841l22.961-13.983h81.847Z" fill="#f37168"/>
    <g id="Group_18" data-name="Group 18">
      <path id="Path_24" data-name="Path 24" d="M1166.7,556.921h-88.648a1.5,1.5,0,0,1,0-2.983H1166.7a1.5,1.5,0,0,1,0,2.983Z" fill="#993341"/>
    </g>
    <path id="Rectangle_33" data-name="Rectangle 33" d="M22.909,0H158.73a22.909,22.909,0,0,1,22.909,22.909V32.54a22.91,22.91,0,0,1-22.91,22.91H22.909A22.909,22.909,0,0,1,0,32.541V22.909A22.909,22.909,0,0,1,22.909,0Z" transform="translate(1030.257 632.504)" fill="#e89795"/>
    <g id="Group_27" data-name="Group 27">
      <g id="Group_26" data-name="Group 26">
        <path id="Path_25" data-name="Path 25" d="M1065.541,422.706c4.642-8.057,47.964-22.42,51.058-22.07s25.549,57.453,30.258,79.873,5.328,25.924,5.328,25.924-50.13,18.567-59.413,20.318l-9.283,1.752s-4.642-50.446-9.284-69.013S1065.541,422.706,1065.541,422.706Z" fill="#dbe5eb"/>
        <g id="Group_19" data-name="Group 19">
          <path id="Path_26" data-name="Path 26" d="M1098.032,505.224a1.129,1.129,0,0,1-1.057-.909,1.27,1.27,0,0,1,.762-1.531l28.779-9.108a1.086,1.086,0,0,1,1.352.862,1.269,1.269,0,0,1-.762,1.531l-28.778,9.108A.957.957,0,0,1,1098.032,505.224Z" fill="#3e6bab"/>
        </g>
        <g id="Group_20" data-name="Group 20">
          <path id="Path_27" data-name="Path 27" d="M1096.485,500.67a1.125,1.125,0,0,1-1.054-.9,1.271,1.271,0,0,1,.75-1.538l27.85-9.108a1.084,1.084,0,0,1,1.359.849,1.272,1.272,0,0,1-.75,1.538l-27.85,9.108A.965.965,0,0,1,1096.485,500.67Z" fill="#3e6bab"/>
        </g>
        <g id="Group_21" data-name="Group 21">
          <path id="Path_28" data-name="Path 28" d="M1091.224,481.753a1.13,1.13,0,0,1-1.058-.913,1.27,1.27,0,0,1,.767-1.529l25.993-8.116a1.087,1.087,0,0,1,1.35.868,1.268,1.268,0,0,1-.766,1.528l-25.993,8.116A.967.967,0,0,1,1091.224,481.753Z" fill="#3e6bab"/>
        </g>
        <g id="Group_22" data-name="Group 22">
          <path id="Path_29" data-name="Path 29" d="M1091.224,477.7a1.13,1.13,0,0,1-1.057-.91,1.271,1.271,0,0,1,.763-1.531l25.994-8.2a1.089,1.089,0,0,1,1.352.864,1.269,1.269,0,0,1-.763,1.53l-25.994,8.2A.948.948,0,0,1,1091.224,477.7Z" fill="#3e6bab"/>
        </g>
        <g id="Group_23" data-name="Group 23">
          <path id="Path_30" data-name="Path 30" d="M1085.345,461.434a1.124,1.124,0,0,1-1.052-.89,1.276,1.276,0,0,1,.741-1.545l25.065-8.408a1.086,1.086,0,0,1,1.364.839,1.276,1.276,0,0,1-.741,1.545l-25.065,8.408A1,1,0,0,1,1085.345,461.434Z" fill="#3e6bab"/>
        </g>
        <g id="Group_24" data-name="Group 24">
          <path id="Path_31" data-name="Path 31" d="M1085.345,457.23a1.038,1.038,0,0,1-.776-.364,1.362,1.362,0,0,1,0-1.758c.246-.278.821-.929,23.995-8.374a1.085,1.085,0,0,1,1.355.856,1.272,1.272,0,0,1-.756,1.535c-8.3,2.668-21.845,7.134-23.182,7.876A1.01,1.01,0,0,1,1085.345,457.23Z" fill="#3e6bab"/>
        </g>
        <g id="Group_25" data-name="Group 25">
          <path id="Path_32" data-name="Path 32" d="M1126.812,477.943a1.159,1.159,0,0,1-.316-.044,1.512,1.512,0,0,1-.964-1.8l2.924-13.458a1.428,1.428,0,0,1,.895-1.07,1.208,1.208,0,0,1,1.269.321l5.121,5.255a1.633,1.633,0,0,1,.091,2.107,1.211,1.211,0,0,1-1.86.1l-3.485-3.575-2.4,11.03A1.36,1.36,0,0,1,1126.812,477.943Z" fill="#d54a41"/>
        </g>
      </g>
      <path id="Path_33" data-name="Path 33" d="M1090.873,198.151l-23.145,24.717c-6.014,5.294-6.7,9.332-5.562,17.86,1.4,10.554,3.78,18.6,7.611,18.6,6.586,0,6-20.714,6-20.714l22.461-25.581Z" fill="#f09959"/>
      <path id="Path_34" data-name="Path 34" d="M1090.873,198.151l-6.837,6.02a100.966,100.966,0,0,0-3.863,29.434l18.066-20.576Z" fill="#e38540"/>
      <path id="Path_35" data-name="Path 35" d="M1115.038,222.78c-4.829,10.7-13.2,19.586-19.686,17.692-6.72-1.963-13.5-14.952-8.406-26.818,4.938-11.5,11.93-20.212,19.687-17.692S1120.18,211.394,1115.038,222.78Z" fill="#f09959"/>
      <path id="Path_36" data-name="Path 36" d="M1076.217,378.965c7.9,13.589,15.223,23.2,17.565,33.474s-3.8,26.182-7.465,20.879-8.638-6.717-9.807-21.542c-1.463-18.56-7.319-21.107-7.319-21.107Z" fill="#f09959"/>
      <path id="Path_37" data-name="Path 37" d="M1046.8,231.333c8.783,4.792,9.222,86.32,22.835,121.616s13.905,35.534,13.905,35.534-11.757,7.8-14.294,9.145-32.221-42.187-37.815-66.552c-10.1-44-19.98-50.956-31.177-52.944,1.976-6.463,12.734-21.625,25.469-34.053S1046.8,231.333,1046.8,231.333Z" fill="#d8315b"/>
      <path id="Path_38" data-name="Path 38" d="M1115.189,291.715s8.05-6.872,15.087-5.878,20.868,8.2,18.014,10.688-10.759,2.735-15.589,0S1116.287,290.472,1115.189,291.715Z" fill="#f09959"/>
      <path id="Path_39" data-name="Path 39" d="M1073.447,216.76c10.089-.852,14.98-9.208,15.894-10.463s1.478,9.966,3.417,10.771,4.128-5.328,6.528-10.535,5.621-4.736,5.913,0,3.156,18.995,9.99,22.205a52.014,52.014,0,0,0,10.21,3.582,93.143,93.143,0,0,1-1.025-18.566c1.025-14.076-9.786-26.012-18.3-27.673-6.792-1.326-18.557-.235-23.42,10.605C1077.974,207.126,1073.447,216.76,1073.447,216.76Z" fill="#3a384d"/>
      <path id="Path_40" data-name="Path 40" d="M1093.126,210.408c-.974,3.354-3.458,5.443-5.548,4.665s-2.995-4.127-2.022-7.482,3.458-5.442,5.548-4.664S1094.1,207.054,1093.126,210.408Z" fill="#f09959"/>
    </g>
    <g id="Group_38" data-name="Group 38">
      <path id="Path_41" data-name="Path 41" d="M1550.5,463.24c-5.789-5.055-34.1,7.875-34.681,19.687s7.777,37.04,25.891,38.827,20.289-.547,21.834-16.734S1558.516,470.24,1550.5,463.24Z" fill="#3a384d"/>
      <path id="Path_42" data-name="Path 42" d="M1628.4,863.031s12.881,6.021,10.82,9.136,4.122,20.905,4.122,20.905h-2.576l-4.895-11.441s2.061,13.848-2.318,16-19.58,7.035-18.55,3.025c.548-2.133,4.187-7.365,4.187-7.365Z" fill="#303c60"/>
      <path id="Path_43" data-name="Path 43" d="M1620.231,865.633c2.246,7.023.184,26.564-2.907,30.355s9.532.292,11.851-3.208,1.731-26.348,1.731-26.348Z" fill="#f09959"/>
      <path id="Path_44" data-name="Path 44" d="M1480.005,866s8.814,12.221,5.694,13.855-5.136,20.616-5.136,20.616l-2.267-1.385.488-12.7s-3.992,13.3-8.749,12.836-21.65-1.6-17.6-7.3c1.23-1.73,6.379-3.881,6.379-3.881Z" fill="#303c60"/>
      <path id="Path_45" data-name="Path 45" d="M1471.722,863.9c-.967,7.388-10.974,23.481-15.285,25.157s8.268,5.378,11.777,3.544,12.569-22.262,12.569-22.262Z" fill="#f09959"/>
      <path id="Path_46" data-name="Path 46" d="M1539.778,640.334s18.163,103.562,27.438,126.741C1574.226,784.6,1619,871.2,1624.8,869.885s6.111-3.453,6.111-3.453-17.069-68.958-26.206-83.169c-14.3-22.242-10.82-28.069-11.207-69.63s.016-42.368-9.652-67.3l-9.67-24.937Z" transform="translate(0 6)" fill="#f09959"/>
      <path id="Path_47" data-name="Path 47" d="M1539.778,631.777s-42.425,112.549-45.365,124.361-23.421,112-23.421,112,4.732,4.641,8.364,3.964,35.709-69.587,36.556-91.9,39.71-68.686,44.348-88.373S1539.778,631.777,1539.778,631.777Z" fill="#f09959"/>
      <path id="Path_48" data-name="Path 48" d="M1647.788,660.5s6.184,12.078,7.343,20.171-.387,24.062-3.672,24.062-3.477-1.362-5.6-10.087-3.285-12.03-3.285-12.03h-4.637V659.453Z" fill="#f09959"/>
      <path id="Path_49" data-name="Path 49" d="M1576.3,625.548c1.03,1.5,17.325,32.155,19.9,59.28s2.06,72.914,2.06,72.914l-12.917,2.917-7.692-59.5-3.35,59.5s-14.427,5.833-34.522,1.458-42.251-19.832-42.251-19.832l39.16-106.748Z" fill="#394873"/>
      <path id="Path_50" data-name="Path 50" d="M1561.805,529.082s19.709,7.29,21.641,17.426c1.713,8.984-4.953,65.9-6.489,78.71a4.738,4.738,0,0,1-2.4,3.677c-6.275,3.282-25.115,12.6-34.779,11.439-10.431-1.248-23.731-65.2-22.414-71.878,1.933-9.8,15.845-33.761,26.665-38.974S1561.805,529.082,1561.805,529.082Z" fill="#f2f2f2"/>
      <path id="Path_51" data-name="Path 51" d="M1548.28,496.108s6.763,29.2,10.627,30.949-10.627,26.994-19.129,26.306,4.251-23.881,4.251-23.881l-8.5-29.6Z" fill="#f09959"/>
      <path id="Path_52" data-name="Path 52" d="M1551.142,507.357c-2.085,9.265-4.893,13.586-8.409,17.608l-7.2-25.078,12.747-3.779A84.386,84.386,0,0,0,1551.142,507.357Z" fill="#e38540"/>
      <path id="Path_53" data-name="Path 53" d="M1519.877,489.5c-3.028,11.511-2.394,24.487,3.454,28.186,6.058,3.831,18.884-.267,22.435-12.832,3.441-12.18,3.7-23.946-3.454-28.186S1523.1,477.242,1519.877,489.5Z" fill="#f09959"/>
      <path id="Path_54" data-name="Path 54" d="M1417.6,485.252l10.564-34.2s-43.365-39.293-67.029-43.579a55.089,55.089,0,0,0-24.951,1.474L1314.227,456s39.84,5.181,55.319,19.5,31.776,31.331,31.776,31.331S1410.6,502.318,1417.6,485.252Z" fill="#dae4f2"/>
      <path id="Path_55" data-name="Path 55" d="M1429.449,493.427s-8.75-10.041-10.82-14.219-6.763-10.718-5.024-4.593,2.126,7.218,1.739,12.03a8.944,8.944,0,0,1-3.478,6.782l14.3,8.531Z" fill="#f09959"/>
      <path id="Path_56" data-name="Path 56" d="M1541.71,529.482s-62.217-3.537-68.013-6.562-46.373-33.2-46.373-33.2-6.57,9.85-6.956,10.172,42.122,38.382,50.624,43.195,48.305,15.563,48.305,15.563-7.343,44.115-10.434,54.525-5.41,13.833-5.41,13.833,11.593,2.81,16.616-2.276,6.184-43.758,6.184-59.771S1541.71,529.482,1541.71,529.482Z" fill="#394873"/>
      <path id="Path_57" data-name="Path 57" d="M1575.137,533.457s13.719,5.061,27.438,19.921,33.62,35.119,37.484,46.841,10.048,62.669,10.048,62.669-10.82,4.15-12.366,2.314-12.173-46.444-17.583-54.091-34.816-38.718-34.816-38.718l10.47,45.272s-14.564,10.79-24.479,5.29-14.231-20.005-20.767-37.689,11.239-56.184,11.239-56.184Z" fill="#394873"/>
      <path id="Path_58" data-name="Path 58" d="M1556.781,521.353c.645.875,5.024,7.729,5.024,7.729s-8.75,20.59-12.683,24.294a9.853,9.853,0,0,1-8.957,2.247s-10.852-5.086-8.65-9.7a95.354,95.354,0,0,1,10.195-16.436l1.346-3.389.973,3.389a38.972,38.972,0,0,0-3.221,7.183c-1.416,4.229-1.159,14.875-1.8,16.187s1.8.292,3.349-4.958a68.825,68.825,0,0,0,1.933-12.979s6.827-4.375,9.145-7.583A28.127,28.127,0,0,0,1556.781,521.353Z" fill="#f2f2f2"/>
      <g id="Group_37" data-name="Group 37">
        <g id="Group_28" data-name="Group 28">
          <path id="Path_59" data-name="Path 59" d="M1334.816,443.542a1,1,0,0,1-.567-.179,1.341,1.341,0,0,1-.372-1.707l14.46-27.1a1.03,1.03,0,0,1,1.508-.421,1.339,1.339,0,0,1,.371,1.707l-14.46,27.1A1.075,1.075,0,0,1,1334.816,443.542Z" fill="#3e6bab"/>
        </g>
        <g id="Group_29" data-name="Group 29">
          <path id="Path_60" data-name="Path 60" d="M1365.158,449.143a1,1,0,0,1-.6-.2,1.345,1.345,0,0,1-.317-1.72L1377.6,424.1a1.023,1.023,0,0,1,1.52-.359,1.347,1.347,0,0,1,.318,1.721l-13.359,23.116A1.07,1.07,0,0,1,1365.158,449.143Z" fill="#3e6bab"/>
        </g>
        <g id="Group_30" data-name="Group 30">
          <path id="Path_61" data-name="Path 61" d="M1383.822,457.993a.984.984,0,0,1-.314-.052,1.276,1.276,0,0,1-.739-1.546c.048-.184.149-.566,10.429-20.087a1.029,1.029,0,0,1,1.505-.431,1.34,1.34,0,0,1,.381,1.7c-3.912,7.428-9.836,18.727-10.251,19.652A1.105,1.105,0,0,1,1383.822,457.993Z" fill="#3e6bab"/>
        </g>
        <g id="Group_31" data-name="Group 31">
          <path id="Path_62" data-name="Path 62" d="M1343.437,444.773a1,1,0,0,1-.553-.17,1.337,1.337,0,0,1-.4-1.7l14.147-27.446a1.03,1.03,0,0,1,1.5-.447,1.336,1.336,0,0,1,.4,1.7l-14.146,27.445A1.08,1.08,0,0,1,1343.437,444.773Z" fill="#3e6bab"/>
        </g>
        <g id="Group_32" data-name="Group 32">
          <path id="Path_63" data-name="Path 63" d="M1360.185,446.712a1,1,0,0,1-.578-.186,1.342,1.342,0,0,1-.354-1.712c.483-.883,11.86-21.662,12.917-23.289a1.015,1.015,0,0,1,1.534-.266,1.352,1.352,0,0,1,.235,1.737c-.8,1.24-8.738,15.671-12.82,23.128A1.076,1.076,0,0,1,1360.185,446.712Z" fill="#3e6bab"/>
        </g>
        <g id="Group_33" data-name="Group 33">
          <path id="Path_64" data-name="Path 64" d="M1369.8,471.692a1.376,1.376,0,0,1-1.3-1.238,1.484,1.484,0,0,1,1.074-1.723l6.206-1.214-5.8-13.468a1.584,1.584,0,0,1,.608-1.994,1.252,1.252,0,0,1,1.761.688L1378.921,468a1.66,1.66,0,0,1-.012,1.332,1.34,1.34,0,0,1-.948.79l-7.933,1.552A1.169,1.169,0,0,1,1369.8,471.692Z" fill="#d54a41"/>
        </g>
        <g id="Group_34" data-name="Group 34">
          <path id="Path_65" data-name="Path 65" d="M1379.989,454.638a.992.992,0,0,1-.568-.18,1.341,1.341,0,0,1-.37-1.707l9.983-18.647a1.027,1.027,0,0,1,1.508-.419,1.339,1.339,0,0,1,.369,1.707l-9.982,18.648A1.078,1.078,0,0,1,1379.989,454.638Z" fill="#3e6bab"/>
        </g>
        <g id="Group_35" data-name="Group 35">
          <path id="Path_66" data-name="Path 66" d="M1397.65,473.965a.992.992,0,0,1-.548-.166,1.336,1.336,0,0,1-.4-1.7l11.147-21.849a1.031,1.031,0,0,1,1.5-.455,1.336,1.336,0,0,1,.4,1.7l-11.148,21.85A1.08,1.08,0,0,1,1397.65,473.965Z" fill="#3e6bab"/>
        </g>
        <g id="Group_36" data-name="Group 36">
          <path id="Path_67" data-name="Path 67" d="M1405.3,476.414a.992.992,0,0,1-.538-.161,1.333,1.333,0,0,1-.417-1.693l9.484-19.023a1.032,1.032,0,0,1,1.495-.472,1.333,1.333,0,0,1,.417,1.693l-9.484,19.024A1.081,1.081,0,0,1,1405.3,476.414Z" fill="#3e6bab"/>
        </g>
      </g>
      <path id="Path_68" data-name="Path 68" d="M1518.138,483.8c5.216,12.031,28.54,11.223,28.375,12.83s4.279,24.867,9.5,24.721-4.867-48.488-4.867-48.488l-21.6,1.093Z" fill="#3a384d"/>
      <path id="Path_69" data-name="Path 69" d="M1560.788,481.262c8.746-4.022,10.292-2.491,13.19,2.759s6.183,7.331,5.6,12.087.387,9.665-1.352,14.429-7.729,5.2-12.753,8.045-7.417-5.479-7.417-5.479Z" fill="#3a384d"/>
      <path id="Path_70" data-name="Path 70" d="M1543.6,497.995c-.771,3.6.369,7,2.547,7.6s4.568-1.836,5.34-5.437-.37-7-2.547-7.6S1544.369,494.395,1543.6,497.995Z" fill="#f09959"/>
    </g>
    <g id="Group_51" data-name="Group 51">
      <path id="Path_71" data-name="Path 71" d="M794.436,877.375s2.815,12.3,12.391,15.412,18.911,9.14,5.456,9.326c-14.758.2-23.216-.584-29.35-1.749s-2.115-13.405-1.141-19.233S794.436,877.375,794.436,877.375Z" fill="#0f2d5c"/>
      <path id="Path_72" data-name="Path 72" d="M716.39,867.375s-2.05,24.578,3.17,26.689,11.185,7.176,3.728,7.176-16.684,1.995-19.1-7.176c-2.944-11.186-9.6-13.073-7.227-18.766s9.546-16.269,9.546-16.269Z" fill="#0f2d5c"/>
      <path id="Path_73" data-name="Path 73" d="M816.171,611,797.22,882.589s-9.844,5.151-16.94,5.928-21.773-130.151-20.528-151.084-12.823-87.412-9.565-108.959S816.171,611,816.171,611Z" fill="#626972"/>
      <path id="Path_74" data-name="Path 74" d="M778.252,612.44c1.336-.2,2.683-.385,4.031-.545l32.739,14.341-6.039,80.1c-15.69,39.039-34.464,75.887-43.895,99.708-4.295-28.329-5.915-58.879-5.336-68.616.6-10.082-2.353-30.725-5.211-51.827Z" fill="#3d3f44"/>
      <path id="Path_75" data-name="Path 75" d="M806.827,652.04c-18.373,92.458-90.643,221.5-90.565,221.5s-13.5-2.655-14.189-9.649,7.751-93.009,26.123-113.251S747.822,634.3,747.822,634.3Z" fill="#626972"/>
      <path id="Path_76" data-name="Path 76" d="M763.506,522.788c-20.666,23.53-33.921,63.992-34.1,74s23.829,27.88,23.829,27.88Z" fill="#000202"/>
      <path id="Path_77" data-name="Path 77" d="M786.758,470.861l-8.183,46.1,22.383,27.28,2.977-55.9Z" fill="#f09959"/>
      <path id="Path_78" data-name="Path 78" d="M778.574,502.586s-10.556,4.194-22.306,37.963-19.912,116.98-19.912,116.98,22.576,21.7,54.9,21.692c20.6-.007,31-5.245,31-5.245s2.059-78.431,0-106.741S788.772,501.874,778.574,502.586Z" fill="#1e1b18"/>
      <path id="Path_79" data-name="Path 79" d="M822.252,567.235c-2.059-28.309-33.48-65.361-43.678-64.649,0,0-4.378,1.742-10.633,12,10.55-5.813,23.7,4.323,35.993,37.133,6.15,16.413,12.677,40.029,19.2,45.18C823.04,585.149,822.783,574.529,822.252,567.235Z" fill="#020d0f"/>
      <path id="Path_80" data-name="Path 80" d="M795.353,509.66c-6.65-8.77-9.117-22.169-10.032-30.7l1.293-7.284,1.665.737,15.654,15.93L802.4,517.1A42.23,42.23,0,0,1,795.353,509.66Z" fill="#e38540"/>
      <path id="Path_81" data-name="Path 81" d="M791.871,481.019c2.569,13.722,13.732,21.3,23,19.079s11.292-15.516,8.723-29.237-10.332-20.935-19.6-18.712S789.3,467.3,791.871,481.019Z" fill="#f09959"/>
      <path id="Path_82" data-name="Path 82" d="M781.737,492.172l-7.013,13.412,37.168,31.458s-2.8-14.579-3.549-19.944S782.327,491.044,781.737,492.172Z" fill="#000405"/>
      <path id="Path_83" data-name="Path 83" d="M825.755,442.83c15.61,5.556,2.85,27.828-2.165,28.031s-6.845-5.086-10.964-3.866-8.008-7.069-10.525-5.256-.915,18.651,0,21.5-3.2,3.108-3.2,3.108-1.677-11.915-4.271-11.138-4.518,9.066-8.246,11.138l-3.728,2.073s-2.289-17.982-5.721-21.425-1.281-15.358,3.593-17.689,6.049-12.952,12.783-13.729,12.225,4.4,21.149,3.108S821.389,441.276,825.755,442.83Z" fill="#630"/>
      <path id="Path_84" data-name="Path 84" d="M787.933,478.124c1.284,3.422,4.141,5.322,6.381,4.244s3.014-4.724,1.729-8.146-4.141-5.321-6.381-4.244S786.648,474.7,787.933,478.124Z" fill="#f09959"/>
      <path id="Path_85" data-name="Path 85" d="M770.978,527.666s38.3,48.221,52.088,63.137c.187,13.886.091,30.068-.089,44.448-7.471-4.162-28.228-16.33-40.044-29.23C768.341,590.09,761.831,553.566,770.978,527.666Z" fill="#010a0c"/>
      <path id="Path_86" data-name="Path 86" d="M883.575,591.17c2.528-17.8,31.068-69.625,41.846-75.607,5.944-3.3,59.6,6.939,59.6,6.939s-60.867,59.815-68.687,91.876c-6.985,28.643-6.128,39.485-6.128,39.485l-24.586-20.344S879.771,617.967,883.575,591.17Z" fill="#dbe5eb"/>
      <path id="Path_87" data-name="Path 87" d="M876.818,590.777s9.16-12.84,12.813-11.6a17.3,17.3,0,0,0,8.237,1.236c3.2-.2,3.432,5.042-1.144,14.466s-16.932,11.315-19.906,11.147S876.818,590.777,876.818,590.777Z" fill="#f09959"/>
      <path id="Path_88" data-name="Path 88" d="M775.255,517.1c-14.811,4.459-9.992,46.965-1.646,64.514,6,12.614,26.04,25.476,38.283,29.084s65.346-3.889,65.346-3.889,1.955-19.819-1.742-19.819-47.544-1.149-59.325-13.2S793.141,511.713,775.255,517.1Z" fill="#1e1b18"/>
      <g id="Group_50" data-name="Group 50">
        <path id="Path_89" data-name="Path 89" d="M885.619,590.452c-3.946-2.871,5.188-19.355,5.188-19.355h10.521a74.182,74.182,0,0,1-8.349,9.063A32.825,32.825,0,0,0,885.619,590.452Z" fill="#dbe5eb"/>
        <g id="Group_39" data-name="Group 39">
          <path id="Path_90" data-name="Path 90" d="M958.709,539.3a.97.97,0,0,1-.206-.021l-25.053-5.384a1.242,1.242,0,0,1-.874-1.452,1.114,1.114,0,0,1,1.283-.99l25.053,5.384a1.242,1.242,0,0,1,.874,1.452A1.143,1.143,0,0,1,958.709,539.3Z" fill="#3e6bab"/>
        </g>
        <g id="Group_40" data-name="Group 40">
          <path id="Path_91" data-name="Path 91" d="M946.181,554.729a.984.984,0,0,1-.379-.077L925.993,546.4a1.3,1.3,0,0,1-.651-1.6,1.065,1.065,0,0,1,1.409-.737l19.809,8.254a1.293,1.293,0,0,1,.651,1.595A1.113,1.113,0,0,1,946.181,554.729Z" fill="#3e6bab"/>
        </g>
        <g id="Group_41" data-name="Group 41">
          <path id="Path_92" data-name="Path 92" d="M942.54,559.036a.98.98,0,0,1-.375-.075c-6.02-2.478-17.664-7.253-18.642-7.583a1.276,1.276,0,0,1-.739-1.546A1.082,1.082,0,0,1,924.15,549c1.284.433,18.052,7.335,18.765,7.629a1.294,1.294,0,0,1,.657,1.593A1.113,1.113,0,0,1,942.54,559.036Z" fill="#3e6bab"/>
        </g>
        <g id="Group_42" data-name="Group 42">
          <path id="Path_93" data-name="Path 93" d="M928.274,577.981a.988.988,0,0,1-.428-.1c-5.966-2.865-15.831-7.5-16.906-7.745a1.246,1.246,0,0,1-.861-1.462,1.11,1.11,0,0,1,1.292-.975c1.613.365,14.721,6.64,17.332,7.894a1.309,1.309,0,0,1,.582,1.63A1.1,1.1,0,0,1,928.274,577.981Z" fill="#3e6bab"/>
        </g>
        <g id="Group_43" data-name="Group 43">
          <path id="Path_94" data-name="Path 94" d="M926.372,582.018a.994.994,0,0,1-.423-.1l-16.8-7.947a1.308,1.308,0,0,1-.59-1.626,1.056,1.056,0,0,1,1.437-.667l16.8,7.946a1.307,1.307,0,0,1,.589,1.626A1.1,1.1,0,0,1,926.372,582.018Z" fill="#3e6bab"/>
        </g>
        <g id="Group_44" data-name="Group 44">
          <path id="Path_95" data-name="Path 95" d="M962.619,534.631a1.031,1.031,0,0,1-.205-.021l-26.34-5.623a1.243,1.243,0,0,1-.876-1.452,1.115,1.115,0,0,1,1.282-.991l26.341,5.623a1.242,1.242,0,0,1,.876,1.451A1.144,1.144,0,0,1,962.619,534.631Z" fill="#3e6bab"/>
        </g>
        <g id="Group_45" data-name="Group 45">
          <path id="Path_96" data-name="Path 96" d="M916.122,594.686a.988.988,0,0,1-.419-.094l-12.046-5.623a1.305,1.305,0,0,1-.6-1.623,1.058,1.058,0,0,1,1.434-.675l12.047,5.623a1.306,1.306,0,0,1,.6,1.623A1.106,1.106,0,0,1,916.122,594.686Z" fill="#3e6bab"/>
        </g>
        <g id="Group_46" data-name="Group 46">
          <path id="Path_97" data-name="Path 97" d="M913.8,600.548a.988.988,0,0,1-.459-.115l-11.2-5.862a1.315,1.315,0,0,1-.536-1.65,1.046,1.046,0,0,1,1.457-.606l11.2,5.861a1.316,1.316,0,0,1,.536,1.65A1.1,1.1,0,0,1,913.8,600.548Z" fill="#3e6bab"/>
        </g>
        <g id="Group_47" data-name="Group 47">
          <path id="Path_98" data-name="Path 98" d="M907.562,622.56a.984.984,0,0,1-.448-.11l-15.323-7.775a1.315,1.315,0,0,1-.553-1.643,1.052,1.052,0,0,1,1.451-.626l15.323,7.776a1.314,1.314,0,0,1,.552,1.643A1.1,1.1,0,0,1,907.562,622.56Z" fill="#3e6bab"/>
        </g>
        <g id="Group_48" data-name="Group 48">
          <path id="Path_99" data-name="Path 99" d="M905.237,627.824a.989.989,0,0,1-.443-.107c-13.93-6.982-14.228-7.207-14.325-7.28a1.346,1.346,0,0,1-.3-1.724,1.024,1.024,0,0,1,1.467-.383c.631.369,8.727,4.446,14.05,7.114a1.312,1.312,0,0,1,.56,1.639A1.1,1.1,0,0,1,905.237,627.824Z" fill="#3e6bab"/>
        </g>
        <g id="Group_49" data-name="Group 49">
          <path id="Path_100" data-name="Path 100" d="M910.1,549.235a1.22,1.22,0,0,1-.775-.285,1.586,1.586,0,0,1-.528-1.427l1.057-8.015a1.351,1.351,0,0,1,1.5-1.254,1.475,1.475,0,0,1,1.109,1.695l-.684,5.188,13.272-7.462a1.25,1.25,0,0,1,1.765.673,1.587,1.587,0,0,1-.594,2l-15.534,8.732A1.179,1.179,0,0,1,910.1,549.235Z" fill="#d54a41"/>
        </g>
      </g>
    </g>
  </g>
</svg>
